<svg xmlns="http://www.w3.org/2000/svg" xmlns:xlink="http://www.w3.org/1999/xlink" version="1.1" id="Capa_1" x="0px" y="0px" width="512px" height="512px" viewBox="0 0 380.721 380.722" style="enable-background:new 0 0 380.721 380.722;" xml:space="preserve">
<path d="M261.397,80.855c6.344,0,11.596-4.7,12.502-10.794h0.139V25.864l35.089-6.449v31.394c-2.254-2.115-5.286-3.41-8.633-3.41    c-6.971,0-12.63,5.676-12.63,12.647s5.659,12.646,12.63,12.646c6.367,0,11.607-4.7,12.49-10.805h0.163V12.183l0.221-0.052    l-0.07-8.528l-43.303,8.029l0.023,4.711V59c-2.254-2.109-5.286-3.416-8.621-3.416c-6.982,0-12.641,5.647-12.641,12.647    C248.756,75.214,254.415,80.855,261.397,80.855z M274.038,19.415l35.089-6.495v4.171l-35.089,6.449V19.415z" data-original="#000000" class="active-path" data-old_color="#000000" fill="#4682B4"/>
		<path d="M170.028,80.832c3.439-0.349,5.949-3.404,5.617-6.843c-0.348-3.439-3.404-5.949-6.843-5.618h-0.012    c0.308,0.465,0.558,0.976,0.616,1.562c0.191,1.911-1.209,3.602-3.114,3.793c-1.109,0.104-2.098-0.354-2.806-1.109    c-0.262,0.813-0.384,1.69-0.303,2.585C163.533,78.653,166.588,81.174,170.028,80.832z" data-original="#000000" class="active-path" data-old_color="#000000" fill="#4682B4"/>
		<path d="M329.924,235.731c-22.703-16.23-49.392-5.693-55.247-3.056c-27.571-13.105-63.52-28.733-92.334-36.262    c30.952-12.99,57.56-23.069,74.325-22.796c3.672,3.416,28.732,25.666,52.807,22.552c26.072-3.352,53.19-33.735,71.246-40.613    c-25.828-6.506-51.238-36.181-82.609-32.887c-26.967,2.835-39.956,27.037-43.082,33.781c-24.189,0.5-57.977,14.872-98.944,32.323    c-1.011,0.441-2.074,0.883-3.108,1.319l-6.849-13.06c33.311-10.213,55.99-42.652,52.69-78.635c0.256-1.115,0.465-2.196,0.65-3.184    c0.326-1.824,21.657-7.75,21.657-7.75s-21.32-5.496-21.448-6.338l10.201-26.166l-16.242,13.112    c-7.68-17.701-26.107-29.256-46.336-27.257c-23.185,2.294-40.555,21.582-41.077,44.319v0.023    c-11.148-0.5-23.145-16.656-36.681-45.604c-20.797,30.365-16.301,61.271-8.046,72.216c-14.86,3.131-48.217,3.619-61.498-2.01    c26.816,46.951,64.222,61.416,95.645,64.948c8.563,3.509,17.858,5.496,27.519,5.618l9.615,18.329    c-34.374,14.383-71.885,29.046-111.185,38.539l4.055,16.789c45.476-10.98,88.163-28.467,126.487-44.744    c12.158-0.709,32.184,4.845,54.282,13.048c3.903,10.306-8.586,32.16-19.973,46.219c-9.399,1.882-36.68,8.819-47.625,27.421    c-13.338,22.656-5.96,62.717-11.601,81.19c20.978-16.405,59.987-18.288,76.631-45.104c15.998-25.747,0.15-54.155-1.104-56.304    c7.785-10.26,20.286-29.187,21.541-46.417c13.919,5.704,28.001,12.025,40.944,18.114c0.871,7.54,5.473,37.992,24.446,50.889    c21.738,14.779,62.194,10.051,80.25,16.871C354.916,293.14,355.579,254.101,329.924,235.731z M167.315,62.218    c6.89-0.674,13.019,4.346,13.692,11.235c0.691,6.878-4.34,13.001-11.218,13.681c-6.89,0.68-13.019-4.34-13.692-11.218    C155.417,69.039,160.437,62.898,167.315,62.218z M135.979,197.32l-8.935-17.016c1.446-0.058,2.91-0.157,4.386-0.296    c3.869-0.383,7.604-1.144,11.259-2.074l7.099,13.542C145.245,193.405,140.638,195.357,135.979,197.32z" data-original="#000000" class="active-path" data-old_color="#000000" fill="#4682B4"/>
</svg>
