<svg xmlns="http://www.w3.org/2000/svg" width="434" height="526" viewBox="0 0 434 526">
  <g id="Group_1" data-name="Group 1" transform="translate(-791 -297)">
    <circle id="Ellipse_5" data-name="Ellipse 5" cx="94" cy="94" r="94" transform="translate(960 466)" fill="#f7a500"/>
    <path id="Subtraction_1" data-name="Subtraction 1" d="M263,567a264.949,264.949,0,0,1-53-5.343,261.561,261.561,0,0,1-94.042-39.573A263.768,263.768,0,0,1,20.668,406.372,261.673,261.673,0,0,1,5.343,357,265.565,265.565,0,0,1,5.343,251a261.559,261.559,0,0,1,39.573-94.042A263.767,263.767,0,0,1,160.628,61.668,261.676,261.676,0,0,1,210,46.344,264.949,264.949,0,0,1,263,41V567Z" transform="translate(791 256)" fill="#427baa"/>
    <path id="Subtraction_5" data-name="Subtraction 5" d="M487,171H145a172.265,172.265,0,0,1,3.474-34.462A170.064,170.064,0,0,1,174.2,75.392a171.5,171.5,0,0,1,75.235-61.954,170.142,170.142,0,0,1,32.1-9.964,172.669,172.669,0,0,1,68.925,0A170.064,170.064,0,0,1,411.608,29.2a171.5,171.5,0,0,1,61.954,75.235,170.141,170.141,0,0,1,9.964,32.1A172.268,172.268,0,0,1,487,171Z" transform="translate(738 389)" fill="#f7ce42"/>
    <path id="Subtraction_4" data-name="Subtraction 4" d="M171,480h0a172.268,172.268,0,0,1-34.462-3.474A170.064,170.064,0,0,1,75.392,450.8a171.5,171.5,0,0,1-61.954-75.235,170.142,170.142,0,0,1-9.964-32.1,172.669,172.669,0,0,1,0-68.925A170.065,170.065,0,0,1,29.2,213.392a171.5,171.5,0,0,1,75.235-61.954,170.142,170.142,0,0,1,32.1-9.964A172.268,172.268,0,0,1,171,138V480Z" transform="translate(883 251)" fill="#e7e7e7"/>
    <path id="Subtraction_3" data-name="Subtraction 3" d="M171,289H0a172.273,172.273,0,0,1,3.474-34.463A170.075,170.075,0,0,1,29.2,193.392a171.5,171.5,0,0,1,75.235-61.954,170.2,170.2,0,0,1,32.1-9.964A172.3,172.3,0,0,1,171,118V289Z" transform="translate(883 271)" fill="#fff"/>
    <circle id="Ellipse_6" data-name="Ellipse 6" cx="38" cy="38" r="38" transform="translate(969 474)" fill="#18233e"/>
  </g>
</svg>
